# xmcd
#
# Track frame offsets: 
#        150
#        21108
#        46859
#        67549
#        109627
#        131541
#        159539
#        181759
#
# Disc length: 2987 seconds
#
# Revision: 0
# Processed by: cddbd v1.5.2PL0 Copyright (c) Steve Scherf et al.
# Submitted via: ExactAudioCopy v1.0b3
#
DISCID=550ba908
DTITLE=Various Artist - Lung Linh Giot Mua
DYEAR=1999
DGENRE=
TTITLE0=Lam Truong - Lung linh giot mua
TTITLE1=Bang Kieu, Tran Thu Ha - May xua
TTITLE2=Phuong Thanh - Doi tra
TTITLE3=Tran Thu Ha, Phi Thuy Hanh - LK Hoa co mua Xuan, Khat vong, Em
TTITLE3=va toi
TTITLE4=Nhat Hao, Phi Thuy Hanh - Trinh trang ao dai
TTITLE5=Tran Thu Ha - Yeu
TTITLE6=Bang Kieu - Ngay thang biet buon
TTITLE7=Phuong Thanh, Bang kieu, Tran Thu Ha - LK Vuon yeu, Mau lang q
TTITLE7=uen, Danh thuc tam Xuan
EXTD=
EXTT0=
EXTT1=
EXTT2=
EXTT3=
EXTT4=
EXTT5=
EXTT6=
EXTT7=
PLAYORDER=
